<?xml version="1.0" standalone="no"?>
<!DOCTYPE svg PUBLIC "-//W3C//DTD SVG 20010904//EN"
 "http://www.w3.org/TR/2001/REC-SVG-20010904/DTD/svg10.dtd">
<svg version="1.0" xmlns="http://www.w3.org/2000/svg"
 width="900.000000pt" height="900.000000pt" viewBox="0 0 900.000000 900.000000"
 preserveAspectRatio="xMidYMid meet">
<metadata>
Created by potrace 1.10, written by Peter Selinger 2001-2011
</metadata>
<g transform="translate(0.000000,900.000000) scale(0.100000,-0.100000)"
fill="#000000" stroke="none">
<path d="M3920 8985 c0 -24 43 -39 69 -26 38 21 26 41 -24 41 -34 0 -45 -4
-45 -15z"/>
<path d="M4484 8991 c8 -13 -15 -29 -48 -33 -43 -5 -46 -28 -3 -28 18 0 56 -7
83 -15 68 -21 134 -20 134 1 0 13 7 15 34 10 42 -8 156 -53 176 -70 8 -7 23
-16 33 -19 9 -4 17 -11 17 -17 0 -5 7 -10 15 -10 8 0 15 -7 15 -15 0 -8 7 -15
15 -15 8 0 15 -4 15 -10 0 -5 -7 -10 -15 -10 -8 0 -15 5 -15 10 0 15 -30 12
-36 -4 -3 -8 2 -26 11 -40 17 -25 17 -26 -4 -26 -11 0 -21 4 -21 9 0 5 -11 12
-25 15 -14 4 -25 11 -25 16 0 6 -6 10 -14 10 -8 0 -21 6 -28 14 -42 42 -203
93 -363 115 -118 17 -195 33 -195 42 0 5 27 9 60 9 68 0 80 15 20 25 -74 12
-267 10 -284 -4 -11 -9 -33 -11 -78 -6 -35 4 -128 7 -208 7 -116 0 -162 -4
-230 -22 -47 -12 -107 -26 -135 -32 -27 -5 -58 -14 -67 -19 -10 -5 -25 -9 -34
-9 -9 0 -37 -11 -63 -24 -25 -14 -62 -32 -81 -40 -19 -9 -59 -29 -88 -46 -42
-23 -52 -26 -47 -12 25 60 17 65 -35 22 -19 -17 -38 -30 -43 -30 -12 0 -69
-58 -91 -92 -10 -16 -23 -28 -29 -28 -6 0 -58 -48 -117 -107 -58 -60 -126
-124 -150 -144 -102 -82 -179 -136 -243 -169 -106 -54 -228 -167 -242 -223 -4
-15 -11 -30 -16 -33 -5 -3 -9 -16 -9 -29 0 -13 -5 -27 -10 -30 -6 -4 -20 -25
-31 -47 -19 -38 -20 -43 -5 -53 23 -17 20 -71 -4 -95 -27 -27 -46 -16 -26 16
19 28 21 77 4 72 -16 -6 -68 -108 -68 -135 0 -12 -6 -26 -14 -30 -16 -9 -73
-82 -94 -119 -7 -13 -21 -24 -30 -24 -9 0 -30 -13 -45 -30 l-29 -30 26 0 c13
0 28 -5 31 -11 5 -7 11 -5 18 4 7 8 22 18 35 22 38 11 32 -11 -50 -168 -12
-24 -17 -48 -14 -65 7 -30 -34 -155 -60 -183 -12 -13 -15 -28 -10 -54 6 -31 5
-35 -15 -35 -20 0 -21 -3 -14 -56 6 -49 5 -56 -9 -51 -8 3 -18 2 -20 -2 -12
-19 -15 -142 -5 -165 10 -22 6 -31 -35 -85 -43 -55 -156 -275 -156 -302 0 -6
-6 -23 -14 -37 -8 -15 -17 -39 -21 -54 -7 -37 -20 -35 -33 5 -10 31 -10 31
-11 -20 -1 -46 -4 -53 -21 -53 -10 0 -23 8 -29 17 -8 14 -12 15 -25 4 -22 -19
-20 -41 4 -41 11 0 26 -12 34 -27 8 -16 34 -39 59 -52 l44 -24 5 -139 c3 -81
10 -144 16 -150 18 -18 24 12 25 139 2 116 2 118 26 121 15 3 21 0 16 -8 -13
-21 5 -60 31 -71 30 -11 29 -26 -9 -144 -20 -63 -25 -70 -46 -67 -19 3 -22 0
-17 -13 10 -27 36 -158 36 -182 0 -16 6 -23 18 -23 10 0 38 -18 63 -40 38 -34
129 -80 159 -80 12 0 13 -14 3 -24 -12 -11 -14 -84 -2 -91 5 -4 16 -1 24 5 13
11 15 7 15 -19 0 -18 9 -40 20 -51 11 -11 20 -28 20 -39 0 -10 7 -35 15 -54 8
-20 15 -47 15 -59 0 -13 16 -75 36 -138 19 -63 43 -137 51 -165 9 -27 24 -65
35 -84 11 -19 17 -43 15 -53 -3 -10 -1 -18 4 -18 6 0 18 -17 27 -38 9 -21 33
-54 53 -74 35 -34 72 -89 173 -258 68 -113 116 -254 116 -340 0 -74 15 -94 26
-35 8 45 21 53 33 22 6 -14 15 -28 20 -32 6 -3 11 -29 11 -56 0 -39 6 -58 27
-86 25 -33 28 -44 29 -124 0 -50 7 -111 16 -141 19 -60 45 -229 47 -303 1 -27
8 -70 15 -95 18 -59 46 -208 46 -240 0 -15 5 -31 12 -38 7 -7 12 -50 13 -111
0 -55 4 -103 8 -107 4 -4 7 -18 7 -31 0 -29 -25 -31 -40 -3 -15 28 -30 16 -30
-23 0 -18 -7 -52 -15 -77 -8 -25 -29 -92 -46 -150 -34 -114 -85 -262 -119
-350 -12 -30 -26 -69 -31 -86 -5 -18 -42 -65 -82 -106 -67 -68 -127 -164 -127
-202 0 -23 -53 -87 -182 -221 -69 -71 -159 -170 -200 -220 -97 -115 -115 -131
-218 -194 -86 -52 -204 -134 -228 -157 -7 -7 -45 -35 -85 -61 -39 -26 -84 -59
-98 -73 -15 -14 -37 -32 -49 -40 -12 -8 -36 -27 -54 -42 -17 -15 -35 -28 -40
-28 -8 0 -83 -56 -101 -76 -9 -10 -122 -98 -149 -116 -6 -4 -7 -10 -3 -14 7
-8 117 65 117 78 0 4 4 8 9 8 14 0 99 58 144 97 20 18 44 33 52 33 9 0 35 18
59 40 24 22 51 40 60 40 9 0 22 11 28 25 13 30 66 65 97 65 19 0 21 -6 22 -62
3 -190 8 -280 18 -333 6 -32 11 -79 11 -104 0 -77 8 -91 46 -91 l34 0 -6 48
c-3 26 -10 63 -14 82 -5 19 -12 73 -15 120 -4 47 -13 110 -21 141 -8 31 -14
97 -14 146 0 83 2 91 25 113 14 13 27 21 29 19 3 -3 7 -28 9 -57 2 -29 7 -55
9 -58 6 -5 33 68 49 130 9 37 42 75 65 76 6 0 17 7 24 15 25 30 35 16 36 -47
3 -163 14 -345 23 -387 12 -53 18 -105 27 -243 l7 -98 28 0 c28 0 29 2 29 48
-1 26 -10 135 -21 242 -12 107 -23 232 -26 278 -4 78 -3 82 16 82 18 0 21 6
22 43 2 132 8 167 29 167 4 0 10 -10 14 -23 3 -13 16 -28 29 -34 12 -6 30 -26
39 -44 15 -31 45 -162 53 -231 2 -14 7 -32 11 -40 5 -7 12 -44 16 -83 3 -38
11 -106 18 -150 6 -44 13 -96 14 -116 2 -20 7 -60 11 -88 l7 -51 84 0 c81 0
84 1 90 25 7 30 -3 46 -16 25 -8 -12 -10 -12 -16 3 -3 10 1 29 11 44 16 24 16
26 1 35 -11 6 -16 20 -14 38 1 15 -3 34 -10 42 -18 23 -4 110 17 106 9 -2 16
-13 16 -27 0 -13 6 -26 13 -28 6 -3 12 2 12 11 0 9 5 16 10 16 6 0 10 -14 10
-30 0 -18 6 -33 15 -36 8 -4 15 -14 15 -24 0 -11 5 -22 11 -26 6 -3 8 -17 5
-29 -5 -19 -2 -24 16 -27 19 -2 23 -9 22 -35 -1 -23 3 -33 12 -33 8 0 19 -11
24 -25 l10 -25 270 0 c243 0 302 5 255 24 -8 3 -15 12 -15 20 0 7 -11 21 -25
30 -14 9 -23 21 -20 26 14 22 48 7 102 -45 l58 -55 443 1 c253 0 442 4 442 9
0 5 -9 14 -20 20 -11 6 -20 15 -20 21 0 6 -23 38 -50 72 -28 34 -50 66 -50 72
0 5 -16 27 -35 48 -19 21 -33 42 -30 47 3 5 -2 13 -10 18 -9 4 -24 20 -33 34
-9 14 -35 52 -56 84 -21 33 -49 75 -61 94 -76 121 -146 227 -159 243 -9 9 -16
21 -16 26 0 5 -16 31 -36 57 -20 26 -61 88 -92 138 -30 50 -63 102 -73 115
-11 13 -19 31 -19 41 0 9 -11 29 -25 44 -14 15 -25 35 -25 45 0 30 -21 79 -36
85 -8 3 -14 11 -14 18 0 8 -9 21 -20 31 -11 9 -20 28 -20 41 0 13 -7 29 -15
36 -8 7 -15 17 -15 22 0 5 -7 16 -15 25 -9 8 -13 23 -10 34 3 10 1 28 -5 39
-6 12 -9 29 -6 37 5 12 14 8 40 -21 19 -20 42 -36 50 -36 9 0 16 -8 16 -18 0
-11 10 -24 23 -29 15 -7 28 -26 35 -52 9 -30 18 -41 32 -41 27 0 25 25 -2 52
-13 13 -21 29 -20 36 2 8 -4 22 -12 31 -14 15 -14 19 4 34 27 23 33 21 26 -7
-5 -20 -3 -23 14 -19 13 4 20 0 20 -9 0 -8 12 -25 26 -39 14 -13 38 -44 52
-69 24 -42 200 -268 246 -317 55 -58 116 -138 116 -152 0 -5 9 -15 20 -21 11
-6 20 -16 20 -23 0 -7 9 -18 20 -25 11 -6 26 -28 34 -47 8 -19 20 -35 26 -35
6 0 16 -13 21 -29 6 -16 17 -32 25 -35 8 -3 14 -12 14 -20 0 -9 9 -20 19 -26
11 -5 23 -20 27 -32 3 -12 22 -43 40 -70 19 -26 34 -51 34 -54 0 -4 16 -28 35
-54 19 -26 35 -53 35 -59 0 -6 4 -11 10 -11 5 0 21 -20 36 -45 14 -25 29 -45
34 -45 4 0 10 -9 13 -20 3 -11 12 -20 19 -20 25 0 38 46 31 110 -5 48 -3 60 8
60 8 0 20 10 27 21 12 18 11 26 -4 54 -9 18 -14 40 -10 50 6 15 9 14 27 -9 11
-14 27 -26 34 -26 19 0 55 75 55 114 0 56 14 63 52 25 19 -19 37 -43 41 -52 4
-10 12 -15 17 -12 8 5 6 15 -5 32 -9 14 -15 34 -12 44 3 11 0 19 -8 19 -16 0
-25 22 -25 66 0 20 5 34 12 34 6 0 36 -26 64 -57 29 -31 57 -53 61 -49 4 5 2
11 -4 13 -7 3 -13 15 -13 27 0 12 -5 27 -12 34 -10 10 -8 16 7 32 22 21 22 21
96 -27 19 -13 42 -23 52 -23 9 0 26 -9 37 -20 12 -12 33 -20 53 -20 75 -1 65
-26 -28 -73 -27 -14 -68 -43 -91 -64 -23 -21 -60 -55 -83 -76 -22 -21 -41 -42
-41 -47 0 -14 -44 -12 -58 2 -9 9 -12 7 -12 -11 0 -13 7 -29 15 -35 12 -10 12
-13 0 -30 -12 -16 -18 -17 -27 -8 -7 7 -16 12 -20 12 -13 0 -9 -28 4 -32 7 -3
9 -12 5 -22 -6 -14 -10 -16 -21 -7 -19 16 -30 -3 -17 -28 8 -14 7 -22 -4 -31
-8 -7 -15 -18 -15 -26 0 -21 -20 -27 -46 -13 -21 11 -26 10 -39 -7 -20 -27
-18 -36 5 -29 16 5 20 2 20 -18 0 -13 -9 -32 -20 -42 -17 -15 -24 -16 -46 -7
-37 18 -42 15 -50 -23 -3 -19 -12 -39 -20 -46 -8 -6 -14 -20 -14 -30 0 -18 23
-19 730 -19 663 0 730 1 730 16 0 31 -62 200 -96 263 -134 245 -248 342 -442
378 -57 11 -56 26 2 35 45 6 115 36 141 61 7 7 28 23 46 37 18 14 62 49 98 78
98 77 175 134 218 160 21 13 43 33 49 45 6 12 39 74 72 137 71 135 142 338
142 405 0 25 7 62 15 82 8 19 15 47 15 61 0 14 6 48 14 76 17 61 34 127 46
181 23 99 136 265 181 265 10 0 19 4 19 9 0 11 46 66 183 217 59 65 107 124
107 130 0 6 6 16 13 23 19 15 62 106 80 171 28 99 37 160 36 258 0 90 -1 95
-13 62 -8 -21 -19 -35 -30 -35 -15 0 -17 14 -18 115 -1 63 2 156 6 205 4 50 9
110 11 135 2 25 11 79 20 120 10 41 23 100 30 131 7 30 18 65 24 78 8 13 10
35 5 54 -4 18 -8 39 -9 47 -6 43 -18 91 -25 95 -19 12 -72 -9 -80 -31 -6 -16
-24 -27 -57 -38 -58 -17 -107 -41 -123 -60 -10 -14 -40 -21 -117 -31 -50 -6
-153 -77 -153 -106 0 -9 -7 -22 -15 -29 -8 -7 -15 -18 -15 -24 0 -16 -42 -56
-58 -56 -7 0 -12 -7 -12 -15 0 -8 -8 -23 -17 -33 -10 -9 -24 -35 -31 -55 -12
-33 -12 -41 1 -55 14 -16 45 -186 49 -267 1 -22 -2 -70 -6 -107 -6 -52 -4 -73
9 -97 13 -27 14 -32 1 -37 -20 -8 -19 -89 2 -141 16 -40 32 -56 32 -33 0 6 14
10 30 10 17 0 30 -5 30 -12 0 -6 9 -21 19 -32 35 -38 31 -85 -13 -133 -18 -21
-36 -48 -40 -60 -4 -11 -14 -27 -23 -34 -13 -11 -20 -9 -44 19 -16 18 -29 39
-29 48 0 10 -6 14 -14 11 -25 -10 -39 21 -40 85 -1 62 -18 89 -30 46 -5 -19
-8 -20 -16 -8 -5 8 -10 26 -10 40 0 14 -7 34 -15 44 -8 11 -15 30 -15 43 0 31
-18 29 -31 -4 -8 -22 -12 -24 -19 -13 -6 8 -10 23 -10 32 0 9 -6 21 -13 25 -8
4 -24 23 -37 41 -13 17 -27 32 -32 32 -12 0 -10 -34 3 -47 6 -6 8 -16 5 -22
-10 -16 -36 -13 -36 3 0 8 -8 21 -18 28 -11 7 -24 23 -31 36 -15 28 -37 28
-52 1 -13 -24 -26 -15 -31 21 -4 33 -43 41 -51 11 -7 -30 -24 -26 -42 9 -11
21 -23 30 -40 30 -15 0 -31 10 -41 25 -11 17 -23 24 -34 20 -20 -6 -40 20 -60
83 -8 26 -19 42 -29 42 -30 0 -23 78 11 127 16 24 33 43 37 43 18 0 71 59 71
78 0 27 -19 33 -137 41 -88 6 -106 11 -127 30 -20 19 -33 22 -68 18 -24 -2
-58 -9 -75 -16 -78 -27 -87 -28 -129 -10 -43 20 -101 96 -131 174 -44 114 -38
329 14 483 29 89 30 102 8 227 -15 85 -16 112 -6 181 6 44 11 100 11 125 1 24
7 62 15 84 8 22 15 54 15 70 0 17 11 50 25 75 14 25 29 53 32 63 8 26 82 56
119 50 67 -13 109 -67 134 -173 18 -74 78 -217 104 -245 12 -12 31 -34 43 -48
18 -23 27 -26 69 -23 38 3 65 -3 125 -30 43 -19 87 -34 98 -34 25 0 52 48 44
78 -9 35 45 59 146 66 137 10 250 33 300 63 149 88 156 91 278 101 114 10 144
21 202 69 26 22 35 40 42 78 12 76 10 147 -6 175 -8 16 -12 41 -8 70 7 63 -31
122 -90 140 -23 7 -51 18 -62 26 -11 8 -29 14 -41 14 -12 0 -27 6 -33 14 -6 7
-41 16 -78 20 -36 4 -75 12 -85 17 -15 8 -22 7 -31 -5 -10 -14 -21 -14 -72 -6
-33 6 -91 8 -130 5 -174 -13 -429 -13 -449 0 -12 7 -48 19 -81 25 -33 7 -67
18 -75 26 -13 11 -31 11 -95 3 -44 -6 -110 -14 -146 -19 -37 -5 -93 -14 -125
-21 -33 -6 -81 -11 -109 -11 -133 1 -151 4 -185 26 -19 13 -46 27 -60 31 -14
4 -52 21 -84 37 -38 19 -82 32 -120 36 -34 3 -63 8 -66 12 -3 4 -31 22 -63 40
-48 27 -64 31 -97 26 -46 -7 -92 9 -131 46 -21 19 -25 31 -21 57 2 19 -1 39
-10 49 -14 18 -16 112 -3 167 9 37 35 67 52 61 23 -9 24 12 1 28 -12 9 -20 17
-17 19 29 21 86 30 237 34 151 5 172 8 172 23 0 9 -5 21 -10 26 -8 8 -6 15 5
24 8 7 15 23 15 35 0 16 11 30 36 44 44 26 49 26 73 0 l19 -21 11 20 c15 29
14 31 -14 42 -22 8 -24 12 -13 35 9 21 8 28 -7 45 -21 23 -13 37 24 42 30 4
41 28 13 28 -11 0 -25 7 -32 15 -7 8 -19 15 -28 15 -8 0 -33 16 -56 36 -22 19
-47 39 -53 45 -7 5 -13 20 -13 33 0 15 -9 27 -25 34 -32 15 -34 56 -4 73 17 9
24 8 30 -2 19 -34 38 -53 45 -46 4 4 -2 17 -14 30 -27 28 -30 59 -5 50 14 -5
15 -1 9 27 -3 19 -12 41 -20 49 -30 34 20 141 66 141 9 0 26 14 38 30 20 28
26 31 74 29 28 -1 61 3 73 9 12 7 50 14 84 15 35 2 65 9 67 15 2 6 20 14 40
18 20 4 42 11 49 16 6 5 28 6 47 3 28 -6 37 -4 42 9 3 9 11 16 18 16 6 0 28 8
48 19 22 11 72 21 120 25 48 5 93 14 108 24 20 12 48 15 135 14 109 -2 205 -3
248 -4 91 -1 164 -5 177 -10 8 -3 40 -13 70 -23 30 -10 69 -25 85 -34 17 -9
38 -18 48 -21 10 -3 51 -32 91 -65 63 -51 79 -71 106 -130 18 -38 43 -83 55
-100 30 -43 97 -183 106 -225 4 -19 25 -79 48 -133 42 -101 69 -198 77 -275 2
-24 7 -49 11 -55 3 -6 7 -97 8 -201 l2 -191 46 -185 c56 -221 76 -298 87 -325
11 -26 39 -137 51 -200 6 -27 19 -89 30 -137 11 -49 24 -121 29 -160 5 -40 16
-112 24 -159 18 -105 22 -223 11 -306 -4 -37 -4 -63 1 -63 5 1 27 29 49 62 28
43 49 65 70 71 68 21 127 109 161 237 8 30 19 59 25 65 15 15 11 -100 -6 -131
-8 -16 -15 -41 -15 -56 0 -15 -4 -30 -10 -33 -5 -3 -10 -12 -10 -19 0 -36
-142 -233 -204 -284 -54 -45 -70 -45 -61 -3 4 18 1 32 -8 40 -12 9 -17 3 -31
-36 -10 -27 -22 -66 -27 -88 -6 -21 -14 -44 -20 -51 -5 -6 -12 -33 -15 -60 -3
-27 -10 -61 -16 -76 -7 -18 -6 -33 1 -46 8 -15 7 -29 -4 -56 -10 -23 -14 -67
-14 -133 1 -54 -5 -160 -11 -236 -10 -104 -10 -141 -1 -150 8 -8 11 1 11 36 0
36 4 49 20 57 11 6 20 21 20 35 0 13 5 27 10 30 15 9 12 42 -5 49 -22 8 -19
62 5 86 26 26 36 25 57 -6 l17 -26 9 23 c10 28 0 149 -15 195 -6 17 -8 47 -4
68 7 35 54 96 76 96 5 0 10 7 10 15 0 17 -30 35 -59 35 -30 0 -26 14 14 59 19
21 35 42 35 45 0 11 84 117 110 141 41 36 130 184 130 215 0 9 7 25 15 36 8
10 15 28 15 39 0 11 6 29 14 40 7 11 16 37 20 57 4 20 13 50 21 65 8 15 15 44
15 63 0 19 9 58 19 85 47 129 81 180 81 120 0 -14 -4 -25 -10 -25 -5 0 -10 -6
-10 -14 0 -7 -7 -26 -15 -42 -8 -15 -12 -30 -10 -32 6 -6 65 57 65 71 1 7 6 5
14 -5 7 -10 16 -18 20 -18 10 0 7 39 -6 60 -10 15 -9 22 3 37 9 10 19 26 22
36 4 9 11 17 17 17 16 0 12 -50 -5 -56 -21 -9 -19 -32 5 -39 11 -3 20 -10 20
-14 0 -4 15 -24 34 -44 l34 -37 6 33 c4 17 16 39 27 48 27 20 18 56 -17 69
-34 13 -31 45 11 133 19 41 41 94 50 118 75 212 95 316 75 399 -9 38 -9 55 -1
63 8 8 11 8 11 -1 0 -7 5 -12 10 -12 12 0 -14 43 -47 80 -13 14 -23 34 -23 45
0 12 -5 26 -12 33 -19 19 6 15 50 -7 20 -10 51 -22 69 -25 19 -5 53 -29 87
-62 33 -33 57 -50 61 -43 4 6 -1 19 -11 30 -11 10 -26 27 -36 36 -9 10 -20 34
-25 53 -7 25 -19 39 -48 55 -29 15 -41 29 -48 54 -4 18 -22 45 -38 58 -36 31
-59 73 -59 110 0 15 -11 55 -25 88 -41 99 -29 200 20 181 10 -3 15 -19 15 -43
0 -55 16 -74 24 -30 4 19 13 40 21 47 8 7 15 19 15 26 0 8 6 23 12 34 11 17 8
24 -18 52 -138 145 -164 177 -164 197 0 14 -9 25 -25 31 -33 12 -63 82 -63
145 0 40 2 47 11 34 7 -9 22 -21 34 -27 24 -13 48 -73 40 -103 -3 -10 -2 -21
3 -24 4 -2 10 20 12 51 5 61 25 94 34 56 6 -22 34 -32 34 -12 0 6 -11 33 -25
60 -33 64 -32 73 5 68 32 -5 41 6 13 16 -14 6 -14 8 3 20 10 8 17 16 14 18 -3
2 -24 16 -47 32 -40 27 -94 85 -118 126 -5 11 -34 57 -62 105 -37 59 -53 96
-53 120 0 34 -27 104 -45 117 -5 4 -6 10 -3 14 4 4 19 -2 34 -12 33 -24 86
-53 97 -54 5 0 -1 13 -12 29 -26 35 -27 57 -4 65 15 6 15 8 3 17 -11 8 -10 9
8 4 12 -3 31 -4 41 0 39 12 31 34 -34 100 -59 59 -95 80 -95 55 0 -13 -37 -13
-45 1 -4 6 2 13 14 16 26 7 28 33 2 33 -22 0 -71 41 -71 59 0 6 -17 22 -37 35
-21 13 -57 42 -81 63 -38 35 -41 41 -28 52 14 12 14 16 1 42 -8 15 -15 33 -15
38 0 6 -13 33 -30 59 -45 73 -34 110 18 62 23 -21 42 -26 42 -10 0 17 -100
110 -141 130 -47 24 -79 56 -215 210 -56 63 -110 123 -120 132 -40 37 -92 78
-99 78 -3 0 -39 22 -78 48 -40 27 -80 51 -89 55 -24 9 -23 27 1 27 11 0 23 5
26 10 3 6 -5 10 -19 10 -14 0 -28 -4 -31 -10 -3 -5 -15 -10 -26 -10 -12 0 -19
-4 -17 -9 7 -19 78 -90 107 -107 17 -10 31 -24 31 -31 0 -16 -55 -17 -100 -1
-27 9 -35 8 -44 -4 -6 -8 -29 -22 -51 -31 l-40 -16 35 -2 c19 0 63 -2 98 -3
49 -1 67 -5 77 -19 15 -20 46 -20 53 1 2 7 -5 12 -17 12 -24 0 -37 18 -23 32
7 7 19 5 39 -5 15 -9 36 -18 46 -21 9 -3 20 -14 24 -23 4 -10 11 -21 15 -24 5
-3 -57 -9 -138 -13 -96 -5 -157 -12 -175 -22 -16 -8 -38 -14 -51 -14 -13 0
-44 -6 -69 -14 -27 -8 -59 -11 -79 -7 l-33 6 29 14 29 14 -31 11 c-17 6 -38
18 -47 28 -9 9 -22 19 -29 22 -10 5 -10 7 0 12 14 7 16 34 2 34 -23 0 -8 19
20 25 17 4 30 11 30 16 0 12 -108 42 -126 35 -9 -3 -24 -1 -35 4 -27 15 -121
14 -163 -1 -37 -13 -65 -6 -73 18 -6 18 62 53 103 53 50 0 79 16 43 24 -13 3
-42 7 -64 8 -33 3 -42 8 -55 33 l-14 30 -6 -42 c-8 -56 -15 -61 -52 -40 -34
19 -62 12 -33 -9 10 -7 15 -20 12 -29 -9 -21 -24 -19 -32 5 -3 11 -11 20 -16
20 -13 0 -69 55 -69 67 0 5 -20 28 -45 52 -25 24 -45 50 -45 57 0 12 -46 14
-261 14 -149 0 -258 -4 -255 -9z m461 -41 c3 -5 23 -14 44 -20 30 -8 43 -18
55 -45 9 -19 21 -37 26 -40 6 -3 10 -20 10 -36 0 -18 4 -28 10 -24 6 3 10 -1
10 -9 0 -39 -48 -22 -109 40 -21 22 -50 44 -66 49 -33 12 -50 41 -17 31 26 -9
40 13 19 29 -10 7 -17 17 -17 24 0 14 26 15 35 1z m-305 -10 c0 -6 -27 -10
-60 -10 -33 0 -60 4 -60 10 0 6 27 10 60 10 33 0 60 -4 60 -10z m-350 -100
c88 -9 126 -16 238 -41 23 -5 60 -9 82 -9 21 0 42 -4 45 -10 3 -5 19 -10 35
-10 16 0 32 -4 35 -10 3 -5 17 -10 31 -10 13 0 24 -4 24 -9 0 -5 14 -14 30
-20 17 -5 30 -15 30 -20 0 -6 7 -11 15 -11 8 0 15 -7 15 -15 0 -8 -7 -15 -15
-15 -23 0 -18 -13 16 -40 17 -14 40 -43 51 -64 19 -37 19 -40 3 -52 -19 -14
-11 -36 24 -68 20 -19 29 -46 14 -46 -5 0 -21 14 -38 31 -48 49 -207 166 -255
188 -48 21 -77 17 -42 -7 29 -19 28 -32 -3 -32 -14 0 -25 -2 -25 -5 0 -5 49
-55 55 -55 16 0 151 -168 142 -177 -6 -5 -67 40 -117 86 -14 13 -44 37 -67 54
-24 17 -43 34 -43 39 0 4 -9 8 -20 8 -11 0 -20 7 -20 15 0 9 -10 15 -26 15
-21 0 -24 4 -19 20 6 19 3 20 -37 14 -35 -5 -41 -4 -30 7 20 21 14 32 -15 24
-20 -5 -31 -1 -42 14 -11 14 -36 23 -81 30 -36 5 -85 14 -109 21 -24 6 -65 8
-90 5 -33 -5 -42 -3 -31 4 25 17 4 23 -102 27 -57 2 -116 7 -132 12 -40 11
-46 32 -9 32 15 1 39 7 53 15 14 8 35 14 48 15 19 0 22 4 17 22 -7 21 -6 21
86 15 56 -4 100 -3 109 3 8 5 11 10 7 10 -5 0 -5 5 -1 11 3 6 20 8 38 5 17 -3
74 -10 126 -16z m413 -300 c21 -25 10 -25 -28 0 -25 17 -27 20 -10 20 11 0 28
-9 38 -20z m-560 -17 c4 -3 1 -13 -6 -21 -10 -13 -6 -14 35 -10 42 5 55 1 112
-32 69 -40 173 -117 195 -144 24 -29 -25 -19 -71 14 -22 17 -52 30 -65 30 -14
0 -44 16 -68 35 -23 20 -47 34 -51 33 -12 -4 -75 22 -94 38 -8 6 -30 15 -47
19 -18 3 -33 10 -33 14 0 4 15 12 33 18 41 13 52 14 60 6z m1815 -63 c23 -10
42 -23 42 -28 0 -12 -103 -26 -128 -18 -10 4 -27 -1 -38 -9 -17 -13 -11 -14
63 -15 45 0 84 -4 87 -9 8 -12 -25 -38 -59 -47 -16 -4 -34 -9 -38 -11 -10 -6
57 -42 98 -53 43 -12 94 -30 140 -50 100 -44 180 -83 185 -89 3 -4 17 -12 33
-18 15 -7 27 -17 27 -23 0 -5 9 -10 20 -10 11 0 23 -7 26 -15 4 -8 13 -15 21
-15 23 0 143 -94 133 -104 -5 -5 -19 -2 -34 8 -14 9 -36 16 -48 16 -13 1 -34
7 -48 15 -14 8 -39 14 -57 15 -17 0 -35 5 -38 10 -3 6 -21 10 -38 10 -24 0
-28 -3 -17 -10 8 -5 25 -10 38 -10 25 0 30 -15 6 -24 -18 -7 -136 20 -176 40
-31 16 -210 18 -293 4 -81 -13 -84 3 -5 34 45 18 89 28 121 28 42 -1 50 2 47
16 -3 17 -74 34 -206 49 -29 3 -55 10 -58 15 -4 6 6 21 22 33 38 31 25 43 -54
51 l-62 7 0 34 c0 23 5 36 18 40 9 3 24 12 32 18 8 7 32 15 53 19 51 9 47 26
-8 26 -29 0 -45 4 -45 13 1 14 67 47 96 47 11 0 29 7 40 15 26 19 51 18 102
-5z m-1502 -25 c60 -38 124 -102 124 -122 0 -18 -19 -16 -26 2 -4 8 -10 15
-15 15 -4 0 -30 20 -56 44 -26 25 -62 56 -78 70 -43 38 -13 32 51 -9z m-28
-146 c-2 -6 -8 -10 -13 -10 -5 0 -11 4 -13 10 -2 6 4 11 13 11 9 0 15 -5 13
-11z m202 -15 c0 -8 -4 -12 -10 -9 -5 3 -10 13 -10 21 0 8 5 12 10 9 6 -3 10
-13 10 -21z m-621 -80 c18 -8 51 -14 73 -14 22 0 54 -6 71 -14 18 -7 57 -24
87 -36 30 -12 67 -31 82 -41 14 -11 31 -19 37 -19 7 0 14 -7 17 -15 4 -8 15
-15 25 -15 12 0 19 -7 19 -19 0 -11 6 -21 13 -24 6 -2 9 -8 5 -12 -4 -5 -40 6
-80 24 -40 18 -82 36 -93 40 -11 5 -37 16 -58 25 -21 9 -45 16 -53 16 -9 0
-30 6 -47 14 -18 8 -57 21 -87 30 -30 8 -80 21 -110 30 -30 8 -67 18 -81 21
-15 2 -29 11 -32 19 -5 12 9 14 86 9 51 -3 107 -12 126 -19z m-80 -163 c24 -6
64 -26 89 -44 39 -28 42 -32 23 -35 -12 -2 -29 2 -36 8 -8 7 -22 10 -30 6 -12
-4 -10 -10 10 -30 14 -14 33 -30 42 -35 41 -24 -11 -8 -64 19 -31 17 -61 30
-66 30 -5 0 -15 7 -23 15 -9 8 -25 15 -37 15 -12 0 -31 7 -41 15 -11 8 -34 15
-52 15 -17 0 -53 3 -79 7 -46 6 -47 7 -24 19 29 17 221 13 288 -5z m2774 -1
c3 -11 2 -20 -2 -20 -3 0 -12 9 -19 20 -10 16 -10 20 2 20 7 0 16 -9 19 -20z
m-686 -70 c12 0 24 -4 27 -9 3 -5 31 -12 61 -16 32 -4 58 -12 61 -20 3 -7 16
-16 30 -19 13 -4 24 -10 24 -15 0 -5 25 -24 55 -42 52 -32 67 -49 45 -49 -5 0
-10 -4 -10 -10 0 -5 8 -10 18 -10 24 0 69 -48 77 -82 7 -28 -2 -36 -21 -19 -5
4 -47 14 -94 21 -80 12 -169 10 -324 -6 -41 -4 -56 -3 -52 5 4 6 19 11 34 11
15 0 33 4 41 9 23 15 -92 25 -118 11 -12 -6 -31 -8 -41 -5 -11 4 -36 0 -56 -7
-32 -11 -37 -11 -48 4 -7 10 -24 22 -37 27 -24 10 -24 10 4 10 20 1 30 7 34
21 4 14 14 20 34 20 15 0 32 6 36 14 4 8 21 16 37 18 16 1 31 9 34 16 6 19
-64 16 -72 -4 -8 -22 -51 -14 -51 9 0 23 -30 41 -53 32 -11 -4 -7 4 10 21 22
23 40 28 118 38 73 9 96 16 109 32 14 18 18 19 41 7 14 -7 35 -13 47 -13z
m403 -5 c0 -16 -17 -19 -44 -9 -26 10 -18 24 14 24 20 0 30 -5 30 -15z m-2710
-5 c0 -5 -23 -10 -51 -10 -31 0 -48 4 -44 10 3 6 26 10 51 10 24 0 44 -4 44
-10z m-105 -25 c0 -6 -39 -11 -92 -13 -111 -3 -129 15 -20 21 98 5 112 4 112
-8z m193 -2 c11 -10 29 -24 39 -31 17 -12 17 -13 -2 -8 -49 12 -115 39 -115
47 0 16 56 10 78 -8z m2695 -4 c-6 -6 -18 -6 -28 -3 -18 7 -18 8 1 14 23 9 39
1 27 -11z m-2819 -29 c-7 -7 -19 -7 -35 -1 -23 9 -22 10 11 10 23 1 31 -2 24
-9z m-2090 -1565 c7 -19 -12 -113 -25 -121 -5 -3 -9 -11 -9 -19 0 -19 -71
-123 -89 -130 -28 -11 -35 13 -17 57 29 70 48 112 57 128 5 8 13 25 19 37 10
24 41 61 51 62 4 1 10 -6 13 -14z m-48 -724 c-3 -27 -2 -59 2 -72 16 -42 2
-54 -24 -24 -29 34 -31 76 -4 100 11 10 20 24 20 32 0 7 3 13 6 13 4 0 4 -22
0 -49z m5633 -158 c21 -63 28 -153 12 -153 -30 0 -60 124 -46 190 4 17 8 30
10 28 2 -2 13 -31 24 -65z m-5526 -41 c-22 -5 -47 23 -39 44 6 16 10 15 31
-11 19 -25 21 -31 8 -33z m5217 -62 c26 -26 28 -66 3 -54 -10 4 -39 9 -65 12
-39 3 -48 8 -48 22 0 40 76 54 110 20z m210 -282 c0 -7 -4 -19 -9 -27 -11 -17
-25 3 -17 24 7 18 26 20 26 3z m-1394 -50 c9 -13 -49 -68 -72 -68 -19 0 -16
11 16 49 27 32 44 38 56 19z m-2181 -719 c13 -19 -4 -59 -25 -59 -16 0 -20 7
-20 35 0 28 4 35 19 35 11 0 23 -5 26 -11z m115 -14 c0 -14 -4 -25 -10 -25 -5
0 -10 11 -10 25 0 14 5 25 10 25 6 0 10 -11 10 -25z m2865 -501 c19 -13 25
-25 25 -55 0 -45 -8 -52 -41 -36 -24 12 -37 61 -25 93 7 18 11 18 41 -2z
m-3965 -85 c0 -24 -23 -21 -28 4 -2 10 3 17 12 17 10 0 16 -9 16 -21z m2682
-955 c21 -4 54 -21 74 -38 30 -26 37 -39 38 -71 1 -34 -3 -41 -29 -54 -16 -8
-34 -20 -40 -27 -23 -29 -166 -56 -180 -34 -3 5 -18 4 -36 -2 -25 -9 -32 -7
-44 8 -8 11 -15 34 -15 52 0 20 -4 31 -10 27 -5 -3 -10 -15 -10 -26 0 -29 -19
-23 -26 9 -9 37 -23 52 -48 52 -12 0 -39 12 -61 27 -25 17 -40 22 -43 15 -7
-22 -34 -13 -30 10 2 18 13 24 63 34 33 7 91 13 128 13 38 0 71 2 75 5 7 8
147 7 194 0z m-327 -473 c39 -4 97 -18 130 -29 88 -30 211 -62 239 -62 17 0
39 -17 75 -57 56 -64 61 -78 31 -86 -16 -4 -20 -14 -20 -44 -1 -34 -2 -36 -14
-20 -7 9 -16 17 -19 17 -3 0 -11 -25 -17 -55 l-11 -54 -65 2 c-59 2 -65 0 -70
-20 -8 -31 -32 -36 -62 -12 l-27 21 -10 -36 -10 -35 -20 32 c-11 18 -23 40
-27 50 -5 10 -18 17 -36 17 -16 0 -43 5 -61 11 -21 8 -35 8 -44 1 -28 -23 -47
-15 -111 47 -66 64 -71 64 -78 13 -9 -68 -46 10 -53 113 -3 33 -7 76 -11 96
-7 43 9 79 35 79 10 0 34 7 52 15 34 16 51 15 204 -4z m-2065 -885 c0 -8 7
-19 15 -26 8 -7 15 -21 15 -30 0 -10 10 -27 23 -37 12 -10 30 -35 39 -56 40
-87 53 -110 65 -114 7 -3 13 -9 13 -14 0 -5 16 -31 35 -58 19 -26 35 -54 35
-60 0 -7 16 -28 35 -48 19 -20 35 -42 35 -49 0 -7 11 -26 25 -42 14 -17 25
-34 25 -39 0 -15 30 -72 41 -78 18 -12 42 -71 41 -102 -1 -34 12 -44 22 -17 3
8 10 12 16 9 13 -8 13 -55 0 -55 -25 0 12 -97 58 -153 7 -8 10 -22 6 -30 -5
-13 -12 -10 -40 17 -19 18 -34 38 -34 43 0 6 -16 31 -35 56 -19 25 -35 49 -35
52 0 9 -44 69 -53 73 -4 2 -19 25 -33 50 -29 55 -86 140 -107 162 -8 8 -23 32
-33 53 -10 20 -21 37 -25 37 -4 0 -28 44 -54 98 -26 53 -61 123 -76 155 -16
32 -29 71 -29 86 0 15 -6 36 -14 47 -13 17 -13 40 0 82 5 16 24 6 24 -12z
m-108 -81 c12 -27 13 -35 3 -35 -7 0 -18 14 -24 31 -13 38 -13 39 -3 39 4 0
15 -16 24 -35z m58 -100 c0 -8 -4 -15 -10 -15 -5 0 -10 7 -10 15 0 8 5 15 10
15 6 0 10 -7 10 -15z m2070 -524 c0 -11 -25 -21 -55 -21 -13 0 -27 -4 -30 -10
-9 -15 -45 -12 -45 4 0 8 18 18 48 24 63 13 82 14 82 3z m-2710 -312 c0 -5 -7
-9 -15 -9 -9 0 -15 9 -15 21 0 18 2 19 15 9 8 -7 15 -16 15 -21z m1354 -68
c35 -48 46 -81 26 -81 -5 0 -10 4 -10 8 0 10 -29 49 -52 70 -19 17 -25 52 -9
52 5 0 25 -22 45 -49z m-744 -115 c0 -8 9 -18 21 -21 21 -7 23 -35 2 -43 -8
-2 -13 5 -13 17 0 12 -6 24 -14 27 -20 8 -29 34 -11 34 8 0 15 -6 15 -14z
m877 -26 c2 -8 -2 -22 -7 -30 -9 -13 -13 -11 -29 10 -14 18 -16 27 -8 32 18
12 41 5 44 -12z"/>
<path d="M3910 7990 c-15 -10 -15 -10 25 -10 3 0 5 3 6 7 1 12 -15 13 -31 3z"/>
<path d="M5720 8990 c0 -6 12 -16 28 -23 15 -6 29 -15 32 -19 3 -4 18 -12 34
-17 32 -13 30 -32 -5 -43 -19 -6 -16 -7 11 -4 21 2 50 -4 73 -16 32 -16 44
-17 73 -8 19 6 34 15 34 19 0 10 -172 81 -198 81 -15 0 -22 6 -22 20 0 16 -7
20 -30 20 -16 0 -30 -5 -30 -10z"/>
<path d="M5150 8913 c0 -5 5 -15 10 -23 8 -12 10 -11 10 8 0 12 -4 22 -10 22
-5 0 -10 -3 -10 -7z"/>
<path d="M5550 8890 c-11 -7 -6 -10 20 -10 19 0 60 -9 90 -20 66 -23 80 -24
80 -7 0 30 -154 60 -190 37z"/>
<path d="M4673 8883 c9 -2 25 -2 35 0 9 3 1 5 -18 5 -19 0 -27 -2 -17 -5z"/>
<path d="M6080 8820 c0 -5 9 -10 19 -10 10 0 21 -7 25 -15 5 -15 36 -21 36 -7
0 8 -57 42 -71 42 -5 0 -9 -4 -9 -10z"/>
<path d="M7110 7426 c0 -6 21 -28 60 -61 l23 -20 -12 22 c-10 21 -71 71 -71
59z"/>
<path d="M1632 7120 c-19 -32 -13 -47 8 -20 11 14 20 28 20 33 0 14 -15 7 -28
-13z"/>
<path d="M7300 6960 c0 -5 9 -10 19 -10 11 0 23 -4 26 -10 3 -5 14 -10 23 -10
14 1 13 4 -7 20 -25 21 -61 27 -61 10z"/>
<path d="M7564 5699 c-8 -14 21 -43 35 -35 8 5 8 13 1 27 -12 21 -25 25 -36 8z"/>
<path d="M7613 5564 c-3 -8 -1 -29 5 -47 10 -32 10 -31 11 16 1 48 -5 60 -16
31z"/>
<path d="M1917 4524 c-4 -4 -7 -14 -7 -23 0 -11 3 -12 11 -4 6 6 10 16 7 23
-2 6 -7 8 -11 4z"/>
<path d="M6775 4269 c-10 -15 3 -25 16 -12 7 7 7 13 1 17 -6 3 -14 1 -17 -5z"/>
<path d="M6740 4219 c0 -18 2 -19 15 -9 8 7 15 16 15 21 0 5 -7 9 -15 9 -9 0
-15 -9 -15 -21z"/>
<path d="M6691 4163 c-69 -86 -94 -163 -71 -218 7 -19 9 -18 19 8 6 16 11 38
11 51 0 12 7 31 15 42 8 10 15 25 15 33 0 8 8 24 18 35 25 29 43 74 32 81 -5
3 -22 -12 -39 -32z"/>
<path d="M5093 3955 c-6 -11 -7 -29 -2 -40 4 -11 8 -31 9 -45 1 -27 35 -72 63
-83 9 -3 17 -10 17 -15 0 -5 13 -15 29 -22 17 -7 32 -22 35 -36 4 -13 13 -24
21 -24 19 0 19 -2 -10 64 -13 30 -34 61 -45 68 -11 7 -20 21 -20 31 0 11 -12
31 -27 47 -16 15 -35 38 -44 51 -16 22 -16 23 -26 4z"/>
<path d="M6596 3811 c-3 -22 -3 -47 1 -57 6 -16 7 -16 14 2 11 27 11 94 0 94
-5 0 -11 -18 -15 -39z"/>
<path d="M6568 3685 c-7 -32 8 -43 16 -12 8 30 7 37 -3 37 -5 0 -11 -11 -13
-25z"/>
<path d="M2330 3650 c0 -16 42 -90 51 -90 16 0 10 27 -13 64 -23 35 -38 45
-38 26z"/>
<path d="M5701 1169 c-1 -4 -8 -44 -16 -90 -8 -46 -21 -145 -29 -219 -8 -74
-22 -180 -30 -235 -8 -55 -19 -149 -25 -210 -21 -208 -40 -370 -47 -392 -6
-22 -4 -23 44 -23 l49 0 7 43 c4 23 9 58 11 77 2 19 9 62 15 95 5 33 12 87 14
120 2 33 10 105 17 160 16 116 16 577 1 640 -6 22 -10 37 -11 34z"/>
<path d="M3592 639 c2 -7 10 -15 17 -17 8 -3 12 1 9 9 -2 7 -10 15 -17 17 -8
3 -12 -1 -9 -9z"/>
<path d="M3630 586 c0 -8 5 -18 10 -21 6 -3 10 3 10 14 0 12 -4 21 -10 21 -5
0 -10 -6 -10 -14z"/>
<path d="M3660 520 c0 -11 4 -20 8 -20 5 0 14 -10 21 -22 6 -13 20 -36 31 -53
11 -16 23 -37 27 -45 25 -54 103 -146 103 -123 0 6 -18 41 -40 77 -22 36 -40
72 -40 79 0 8 -11 20 -25 27 -14 8 -28 24 -31 37 -4 13 -10 23 -14 23 -5 0
-12 9 -15 20 -3 11 -11 20 -16 20 -5 0 -9 -9 -9 -20z"/>
<path d="M3865 341 c-7 -12 12 -24 25 -16 11 7 4 25 -10 25 -5 0 -11 -4 -15
-9z"/>
<path d="M1070 230 c0 -19 3 -21 12 -12 9 9 9 15 0 24 -9 9 -12 7 -12 -12z"/>
<path d="M970 75 c-14 -42 -5 -75 20 -75 16 0 18 8 18 55 -1 64 -20 75 -38 20z"/>
<path d="M577 76 c-15 -14 -35 -30 -44 -35 -14 -8 -15 -10 -3 -11 8 0 33 16
55 35 22 19 35 35 29 35 -6 0 -23 -11 -37 -24z"/>
<path d="M1070 76 c0 -14 4 -26 8 -26 11 0 12 39 1 45 -5 4 -9 -5 -9 -19z"/>
</g>
</svg>
